<svg xmlns="http://www.w3.org/2000/svg" width="114.66" height="21.0" viewBox="0 0 114.66 21.0" fill="none" role="img" aria-label="Elastly">
  <g transform="translate(-0.750 -10.500) scale(0.75000)">
  <path d="M7 36 Q24 9 41 36" stroke="#0e8c6b" stroke-width="5" stroke-linecap="round" fill="none"/>
  <circle cx="24" cy="22.5" r="5.5" fill="#f0a92b"/>
  </g>
  <path d="M48.82 16.567999999999998Q47.39 16.567999999999998 46.278999999999996 16.171999999999997Q45.168 15.775999999999998 44.397999999999996 15.027999999999999Q43.628 14.279999999999998 43.221000000000004 13.179999999999998Q42.814 12.079999999999998 42.814 10.693999999999999Q42.814 9.329999999999998 43.199 8.174999999999997Q43.584 7.019999999999998 44.332 6.172999999999998Q45.08 5.325999999999999 46.158 4.863999999999999Q47.236 4.401999999999999 48.6 4.401999999999999Q49.92 4.401999999999999 50.954 4.830999999999999Q51.988 5.259999999999998 52.681 6.1179999999999986Q53.373999999999995 6.975999999999999 53.693 8.218999999999998Q54.012 9.461999999999998 53.924 11.067999999999998L44.86 11.155999999999999V9.418L52.098 9.351999999999999L50.976 10.232Q51.129999999999995 9.065999999999999 50.821999999999996 8.317999999999998Q50.513999999999996 7.5699999999999985 49.931 7.217999999999998Q49.348 6.865999999999998 48.644 6.865999999999998Q47.808 6.865999999999998 47.17 7.305999999999998Q46.532 7.745999999999999 46.18 8.592999999999998Q45.828 9.439999999999998 45.828 10.627999999999998Q45.828 12.497999999999998 46.653000000000006 13.377999999999998Q47.478 14.258 48.82 14.258Q49.436 14.258 49.864999999999995 14.092999999999998Q50.294 13.927999999999997 50.569 13.663999999999998Q50.844 13.399999999999999 51.009 13.069999999999999Q51.174 12.739999999999998 51.284 12.409999999999998L54.034 13.003999999999998Q53.836 13.817999999999998 53.451 14.466999999999999Q53.066 15.115999999999998 52.428 15.588999999999999Q51.79 16.061999999999998 50.899 16.314999999999998Q50.007999999999996 16.567999999999998 48.82 16.567999999999998Z" fill="#0f1a15"/>
  <path d="M55.574 16.259999999999998V0.5299999999999994H58.698V16.259999999999998Z" fill="#0f1a15"/>
  <path d="M63.648 16.567999999999998Q62.68 16.567999999999998 61.932 16.183Q61.184000000000005 15.797999999999998 60.766000000000005 15.072Q60.348 14.345999999999998 60.348 13.267999999999997Q60.348 12.322 60.711 11.684Q61.074000000000005 11.046 61.778000000000006 10.649999999999999Q62.482 10.253999999999998 63.516 9.989999999999998Q64.55 9.725999999999999 65.87 9.527999999999999Q66.574 9.418 67.025 9.318999999999999Q67.476 9.219999999999999 67.696 8.988999999999999Q67.916 8.758 67.916 8.317999999999998Q67.916 7.701999999999998 67.476 7.261999999999999Q67.036 6.821999999999999 66.09 6.821999999999999Q65.452 6.821999999999999 64.913 7.041999999999999Q64.374 7.261999999999999 63.989 7.701999999999998Q63.604 8.141999999999998 63.428000000000004 8.823999999999998L60.634 7.965999999999999Q60.898 7.063999999999998 61.393 6.403999999999998Q61.888000000000005 5.743999999999998 62.592 5.292999999999998Q63.296 4.841999999999999 64.198 4.621999999999999Q65.1 4.401999999999999 66.156 4.401999999999999Q67.85 4.401999999999999 68.917 4.940999999999999Q69.98400000000001 5.479999999999999 70.512 6.612999999999999Q71.04 7.745999999999999 71.04 9.527999999999999V11.508Q71.04 12.277999999999999 71.07300000000001 13.069999999999999Q71.106 13.861999999999998 71.161 14.665Q71.21600000000001 15.467999999999998 71.282 16.259999999999998H68.488Q68.4 15.709999999999997 68.32300000000001 14.994999999999997Q68.24600000000001 14.279999999999998 68.202 13.553999999999998H67.806Q67.498 14.389999999999999 66.926 15.072Q66.354 15.753999999999998 65.529 16.160999999999998Q64.70400000000001 16.567999999999998 63.648 16.567999999999998ZM64.99000000000001 14.279999999999998Q65.408 14.279999999999998 65.837 14.125999999999998Q66.266 13.971999999999998 66.673 13.697Q67.08 13.421999999999999 67.42099999999999 13.003999999999998Q67.762 12.585999999999999 67.982 12.057999999999998L67.938 10.209999999999997L68.444 10.319999999999999Q68.048 10.605999999999998 67.52000000000001 10.770999999999997Q66.992 10.935999999999998 66.43100000000001 11.023999999999997Q65.87 11.111999999999998 65.32 11.221999999999998Q64.77 11.331999999999997 64.341 11.507999999999997Q63.912 11.683999999999997 63.659 11.980999999999998Q63.406 12.277999999999999 63.406 12.805999999999997Q63.406 13.487999999999998 63.846000000000004 13.883999999999997Q64.286 14.279999999999998 64.99000000000001 14.279999999999998Z" fill="#0f1a15"/>
  <path d="M77.772 16.567999999999998Q76.60600000000001 16.567999999999998 75.66 16.348Q74.714 16.127999999999997 74.03200000000001 15.709999999999997Q73.35000000000001 15.291999999999998 72.932 14.708999999999998Q72.514 14.125999999999998 72.382 13.399999999999999L74.802 12.409999999999998Q74.89 12.893999999999998 75.286 13.311999999999998Q75.682 13.729999999999999 76.35300000000001 13.982999999999997Q77.024 14.235999999999997 77.97 14.235999999999997Q78.982 14.235999999999997 79.53200000000001 13.938999999999997Q80.08200000000001 13.641999999999998 80.08200000000001 13.091999999999999Q80.08200000000001 12.673999999999998 79.774 12.431999999999999Q79.46600000000001 12.189999999999998 78.87200000000001 12.013999999999998Q78.278 11.837999999999997 77.44200000000001 11.683999999999997Q76.628 11.485999999999997 75.781 11.265999999999998Q74.934 11.046 74.219 10.649999999999999Q73.504 10.253999999999998 73.053 9.604999999999999Q72.602 8.956 72.602 7.943999999999999Q72.602 6.887999999999998 73.174 6.095999999999998Q73.74600000000001 5.3039999999999985 74.846 4.852999999999999Q75.946 4.401999999999999 77.53 4.401999999999999Q78.96000000000001 4.401999999999999 80.03800000000001 4.786999999999999Q81.116 5.171999999999999 81.809 5.886999999999999Q82.50200000000001 6.6019999999999985 82.744 7.591999999999999L80.17 8.45Q80.08200000000001 7.921999999999999 79.74100000000001 7.525999999999999Q79.4 7.129999999999999 78.839 6.931999999999999Q78.278 6.733999999999998 77.53 6.733999999999998Q76.584 6.733999999999998 76.06700000000001 7.041999999999998Q75.55 7.349999999999998 75.55 7.855999999999998Q75.55 8.273999999999997 75.89099999999999 8.537999999999998Q76.232 8.802 76.848 8.966999999999999Q77.464 9.131999999999998 78.3 9.307999999999998Q79.18 9.483999999999998 80.016 9.714999999999998Q80.852 9.945999999999998 81.523 10.319999999999999Q82.194 10.693999999999999 82.59 11.309999999999999Q82.986 11.925999999999998 82.986 12.893999999999998Q82.986 14.037999999999998 82.37 14.863Q81.754 15.687999999999999 80.588 16.128Q79.422 16.567999999999998 77.772 16.567999999999998Z" fill="#0f1a15"/>
  <path d="M88.75000000000001 16.523999999999997Q86.81400000000001 16.523999999999997 85.90100000000001 15.500999999999998Q84.98800000000001 14.477999999999998 84.98800000000001 12.233999999999998V7.195999999999998H83.31600000000002L83.36000000000001 4.709999999999999H84.52600000000001Q85.20800000000001 4.709999999999999 85.53800000000001 4.511999999999999Q85.86800000000001 4.313999999999998 85.93400000000001 3.7859999999999996L86.22000000000001 2.1359999999999992H88.02400000000002V4.709999999999999H90.95V7.283999999999999H88.02400000000002V12.101999999999999Q88.02400000000002 12.893999999999998 88.39800000000001 13.245999999999999Q88.772 13.597999999999999 89.54200000000002 13.597999999999999Q89.96000000000001 13.597999999999999 90.345 13.509999999999998Q90.73 13.421999999999999 91.016 13.223999999999998V16.171999999999997Q90.334 16.392 89.762 16.458Q89.19000000000001 16.523999999999997 88.75000000000001 16.523999999999997Z" fill="#0f1a15"/>
  <path d="M92.534 16.259999999999998V0.5299999999999994H95.658V16.259999999999998Z" fill="#0f1a15"/>
  <path d="M102.28 20.263999999999996Q101.4 20.263999999999996 100.487 20.098999999999997Q99.574 19.933999999999997 98.771 19.592999999999996Q97.968 19.252 97.396 18.723999999999997L98.298 16.017999999999997Q99.00200000000001 16.744 100.058 17.107Q101.114 17.47 102.148 17.47Q103.31400000000001 17.47 104.095 16.997Q104.876 16.523999999999997 105.283 15.544999999999998Q105.69 14.565999999999999 105.756 13.091999999999999L105.888 11.089999999999998H105.404Q105.184 12.541999999999998 104.689 13.465999999999998Q104.194 14.389999999999999 103.435 14.818999999999999Q102.676 15.247999999999998 101.642 15.247999999999998Q100.388 15.247999999999998 99.53 14.609999999999998Q98.672 13.971999999999998 98.243 12.695999999999998Q97.81400000000001 11.419999999999998 97.81400000000001 9.549999999999997V4.709999999999999H100.982V8.779999999999998Q100.982 10.825999999999999 101.444 11.727999999999998Q101.906 12.629999999999999 102.852 12.629999999999999Q103.358 12.629999999999999 103.77600000000001 12.354999999999999Q104.194 12.079999999999998 104.491 11.551999999999998Q104.788 11.023999999999997 104.953 10.264999999999997Q105.118 9.505999999999998 105.118 8.537999999999998V4.709999999999999H108.286V13.201999999999998Q108.286 14.587999999999997 108.04400000000001 15.720999999999998Q107.802 16.854 107.32900000000001 17.701Q106.856 18.548 106.13 19.119999999999997Q105.404 19.691999999999997 104.447 19.977999999999994Q103.49000000000001 20.263999999999996 102.28 20.263999999999996Z" fill="#0f1a15"/>
  <path d="M111.58600000000001 16.546Q110.552 16.546 110.035 16.105999999999998Q109.518 15.665999999999999 109.518 14.741999999999997Q109.518 13.795999999999998 110.035 13.355999999999998Q110.552 12.915999999999999 111.58600000000001 12.915999999999999Q112.64200000000001 12.915999999999999 113.159 13.355999999999998Q113.676 13.795999999999998 113.676 14.741999999999997Q113.676 16.546 111.58600000000001 16.546Z" fill="#f0a92b"/>
</svg>
