<svg xmlns="http://www.w3.org/2000/svg" viewBox="0 0 24 24" role="img" aria-label="java">
<path
        fill="#437291"
        d="M10.2 2.5s3.6 1.9-.6 5.2c-3.3 2.6-.8 4.1 0 5.8-2.1-1.9-3.6-3.5-2.6-5C8.5 6.3 12.4 5.2 10.2 2.5zM13 4.9s2.2 2.2-1.2 4.5c-2.3 1.6-1 3-.1 4.2-1.7-1.4-2.8-2.7-1.5-4C12.1 7.7 14.3 6.7 13 4.9z"
      />
      <path
        fill="#437291"
        d="M6.4 15.7c0 .7 2.5 1.3 5.6 1.3s5.6-.6 5.6-1.3c0-.5-1.2-.9-3-1.1l-.4.6c1 .1 1.7.3 1.7.5 0 .4-1.7.7-3.9.7s-3.9-.3-3.9-.7c0-.3.8-.5 2-.6l-.3-.6c-2 .2-3.4.7-3.4 1.2zM17.4 13.6c1.9-.4 3-1 2.4-1.9-.5-.7-1.9-.8-3-.6l-.2.5c.7-.1 1.6 0 1.9.4.2.4-.5.8-1.4 1.1l.3.5zM5 17.4c0 .9 3.2 1.6 7.1 1.6 3.9 0 7.1-.7 7.1-1.6l-1.5.3c0 .5-2.5.9-5.6.9s-5.6-.4-5.6-.9L5 17.4z"
      />
      <path
        fill="#437291"
        d="M8.3 19.8c1.1.2 2.4.3 3.8.3 3.2 0 5.9-.5 6.6-1.2.4.3.2 1.9-6.6 2.1-4.2.1-6-.5-3.8-1.2z"
      />
</svg>
