<svg xmlns="http://www.w3.org/2000/svg" viewBox="0 0 24 24" role="img" aria-label="php">
<ellipse cx="12" cy="12" rx="11" ry="6" fill="#777BB4" />
      <path
        fill="#fff"
        d="M6.2 9.6h2c1.2 0 1.9.6 1.7 1.8-.2 1.3-1.1 1.9-2.4 1.9h-.8l-.3 1.5H5.2l1-5.2zm1 2.8h.6c.6 0 1.1-.2 1.2-.9.1-.6-.2-.9-.8-.9h-.6l-.4 1.8zM11.7 8.2h1.2l-.3 1.4h1.1c1.1 0 1.6.5 1.4 1.6l-.5 2.6h-1.2l.5-2.4c.1-.5 0-.8-.5-.8h-.9l-.6 3.2h-1.2l1-5.6zM16.6 9.6h2c1.2 0 1.9.6 1.7 1.8-.2 1.3-1.1 1.9-2.4 1.9h-.8l-.3 1.5h-1.2l1-5.2zm1 2.8h.6c.6 0 1.1-.2 1.2-.9.1-.6-.2-.9-.8-.9H18l-.4 1.8z"
      />
</svg>
