<svg xmlns="http://www.w3.org/2000/svg" viewBox="0 0 24 24" role="img" aria-label="python">
<path
        fill="#3776AB"
        d="M12 2c-2.5 0-4.4.3-4.4 2.7v2.6h4.5v.6H5.5c-2.4 0-3.5 1.5-3.5 4s1 4 3.5 4h1.6v-2.6C7.1 15 8.8 13.5 11 13.5h3.9c1.6 0 2.9-1.3 2.9-2.9V4.7C17.8 3 16 2 12 2zm-2.5 1.5c.5 0 .9.4.9.9s-.4.9-.9.9-.9-.4-.9-.9.4-.9.9-.9z"
      />
      <path
        fill="#FFD43B"
        d="M12 22c2.5 0 4.4-.3 4.4-2.7v-2.6h-4.5v-.6h6.6c2.4 0 3.5-1.5 3.5-4s-1-4-3.5-4h-1.6v2.6c0 1.7-1.7 3.2-3.9 3.2H9.1c-1.6 0-2.9 1.3-2.9 2.9v4.5C6.2 21 8 22 12 22zm2.5-1.5c-.5 0-.9-.4-.9-.9s.4-.9.9-.9.9.4.9.9-.4.9-.9.9z"
      />
</svg>
